<svg xmlns="http://www.w3.org/2000/svg" version="1.1" xmlns:xlink="http://www.w3.org/1999/xlink" xmlns:svgjs="http://svgjs.dev/svgjs" width="128" height="128" viewBox="0 0 128 128"><g transform="matrix(0.8046875,0,0,0.8046875,12.41184074821259,12.814873242367177)"><svg viewBox="0 0 98 98" data-background-color="#ffffff" preserveAspectRatio="xMidYMid meet" height="127" width="128" xmlns="http://www.w3.org/2000/svg" xmlns:xlink="http://www.w3.org/1999/xlink"><g id="tight-bounds" transform="matrix(1,0,0,1,0.08387967645792571,0.08387967645792571)"><svg viewBox="0 0 97.83224064708413 97.83224064708413" height="97.83224064708413" width="97.83224064708413"><g><svg></svg></g><g><svg viewBox="0 0 97.83224064708413 97.83224064708413" height="97.83224064708413" width="97.83224064708413"><g><path d="M0 48.916c0-27.016 21.9-48.916 48.916-48.916 27.016 0 48.916 21.9 48.916 48.916 0 27.016-21.9 48.916-48.916 48.916-27.016 0-48.916-21.9-48.916-48.916zM48.916 93.244c24.481 0 44.328-19.846 44.328-44.328 0-24.481-19.846-44.328-44.328-44.327-24.481 0-44.328 19.846-44.327 44.327 0 24.481 19.846 44.328 44.327 44.328z" data-fill-palette-color="tertiary" fill="#000000" stroke="transparent"></path><ellipse rx="46.959475510600384" ry="46.959475510600384" cx="48.91612032354207" cy="48.91612032354207" fill="#000000" stroke="transparent" stroke-width="0" fill-opacity="1" data-fill-palette-color="tertiary"></ellipse></g><g transform="matrix(1,0,0,1,23.475393915029336,23.475393915029336)"><svg viewBox="0 0 50.88145281702546 50.88145281702546" height="50.88145281702546" width="50.88145281702546"><g><svg viewBox="0 0 50.88145281702546 50.88145281702546" height="50.88145281702546" width="50.88145281702546"><g><svg viewBox="0 0 50.88145281702546 50.88145281702546" height="50.88145281702546" width="50.88145281702546"><g id="textblocktransform"><svg viewBox="0 0 50.88145281702546 50.88145281702546" height="50.88145281702546" width="50.88145281702546" id="textblock"><g><svg viewBox="0 0 50.88145281702546 50.88145281702546" height="50.88145281702546" width="50.88145281702546"><g><svg viewBox="0 0 50.88145281702546 50.88145281702546" height="50.88145281702546" width="50.88145281702546"><g><svg xmlns="http://www.w3.org/2000/svg" xmlns:xlink="http://www.w3.org/1999/xlink" version="1.1" x="0" y="0" viewBox="5 5 90 90" enable-background="new 0 0 100 100" xml:space="preserve" height="50.88145281702546" width="50.88145281702546" class="icon-icon-0" data-fill-palette-color="quaternary" id="icon-0"><g fill="#ffffff" data-fill-palette-color="quaternary"><g fill="#ffffff" data-fill-palette-color="quaternary"><path d="M69.527 54.309A4.1 4.1 0 0 1 68.327 57.2 4.18 4.18 0 0 1 65.436 58.4 4.1 4.1 0 0 1 62.545 57.2 4.086 4.086 0 0 1 62.545 51.418C63.309 50.654 64.345 50.218 65.436 50.218 66.472 50.218 67.563 50.654 68.327 51.418S69.527 53.218 69.527 54.309" fill="#ffffff" data-fill-palette-color="quaternary"></path><path d="M34.564 50.218C35.655 50.218 36.691 50.654 37.455 51.418A4.086 4.086 0 0 1 37.455 57.2 4.086 4.086 0 0 1 31.673 57.2 4.086 4.086 0 0 1 31.673 51.418C32.437 50.654 33.473 50.218 34.564 50.218" fill="#ffffff" data-fill-palette-color="quaternary"></path><path d="M85.345 39.745C84.418 36.527 83.109 33.527 81.309 30.8H77.818C76.291 30.745 74.709 31.673 73.945 32.982L70.181 39.746H85.345zM60.8 49.782C59.709 50.982 59 52.564 59 54.309 59 57.854 61.782 60.691 65.382 60.691H85.237A36.5 36.5 0 0 0 86.819 50C86.819 49.291 86.819 48.582 86.71 47.927H65.381C63.636 47.927 62.054 48.636 60.854 49.727zM5 50C5 25.127 25.127 5 50 5 65.327 5 78.855 12.691 86.982 24.418 92.055 31.673 95 40.455 95 50 95 74.873 74.818 95 50 95 25.127 95 5 74.873 5 50M29.764 39.745L26.055 33.09 26 32.982C25.127 31.618 23.655 30.8 22.127 30.8H18.636A32.3 32.3 0 0 0 14.654 39.745zM34.564 60.691C36.364 60.691 38 59.982 39.091 58.836 40.291 57.636 41 56.109 41 54.309 41 50.764 38.109 47.927 34.564 47.927H13.291C13.182 48.582 13.182 49.291 13.182 50 13.182 53.709 13.727 57.309 14.764 60.691zM38.654 73.291C38.654 75.582 36.854 77.382 34.563 77.382A4.086 4.086 0 0 1 30.472 73.291V68.873H18.417C19.944 71.491 21.853 73.891 23.981 76.018 30.636 82.727 39.799 86.818 49.999 86.818 60.144 86.818 69.363 82.727 76.017 76.018A35.2 35.2 0 0 0 81.526 68.873H69.471V73.291C69.471 75.582 67.671 77.382 65.38 77.382A4.086 4.086 0 0 1 61.289 73.291V68.273C58.889 67.564 56.762 66.309 55.071 64.618A14.55 14.55 0 0 1 50.816 54.309C50.816 50.327 52.452 46.673 55.016 44L55.071 43.945C55.398 43.618 55.726 43.345 56.053 43.018L55.344 42.309A4.18 4.18 0 0 1 55.344 36.473C56.98 34.891 59.544 34.891 61.126 36.473L62.108 37.455 66.8 29C68.6 25.945 71.545 23.764 74.927 22.945A36.64 36.64 0 0 0 50 13.182C40.345 13.182 31.618 16.891 25.073 23 28.455 23.764 31.346 25.945 33.146 28.945V29L37.837 37.455 38.819 36.473C40.401 34.891 43.019 34.891 44.601 36.473A4.18 4.18 0 0 1 44.601 42.309L43.837 43.073C44.219 43.346 44.546 43.673 44.873 44A14.47 14.47 0 0 1 49.182 54.309C49.182 58.345 47.491 62 44.873 64.618 43.182 66.309 41.055 67.618 38.655 68.273z" fill="#ffffff" data-fill-palette-color="quaternary"></path></g></g></svg></g></svg></g></svg></g></svg></g></svg></g><g></g></svg></g></svg></g></svg></g><defs></defs></svg><rect width="97.83224064708413" height="97.83224064708413" fill="none" stroke="none" visibility="hidden"></rect></g></svg></g></svg>